<svg xmlns="http://www.w3.org/2000/svg" viewBox="0 0 480 479.91"><defs><style>.a{fill:#bf8ac6;}</style></defs><title>dental-service-3</title><path class="a" d="M440,32H368a32,32,0,0,0-64,0H232a40,40,0,0,0-40,40v55.34h16V72a24,24,0,0,1,24-24h44.46l-6,16H232a8,8,0,0,0-8,8v55.34h16V80h24.46l-8,21.18A8,8,0,0,0,264,112H408a8,8,0,0,0,7.5-10.82l-8-21.18H432V320H376a8,8,0,0,0-8,8v56H264v16H440a8,8,0,0,0,8-8V72a8,8,0,0,0-8-8H401.54l-6-16H440a24,24,0,0,1,24,24V392a24,24,0,0,1-24,24H264v16H440a40,40,0,0,0,40-40V72A40,40,0,0,0,440,32ZM384,336h36.69L384,372.69Zm48,48H395.31L432,347.31ZM396.45,96H275.54l18-48H312a8,8,0,0,0,8-8V32a16,16,0,0,1,32,0v8a8,8,0,0,0,8,8h18.46Z" transform="translate(0.01)"/><path class="a" d="M213.56,144a74.41,74.41,0,0,0-29.23,6,102.83,102.83,0,0,1-80.66,0A74.4,74.4,0,0,0,0,218.4a202.32,202.32,0,0,0,21.25,90l11,21.92,13.6,122.32a30.78,30.78,0,0,0,61,1.17l17.53-116.87a19.86,19.86,0,0,1,39.3,0L181.2,453.81a30.78,30.78,0,0,0,61-1.17l13.6-122.32,11-21.92a202.32,202.32,0,0,0,21.25-90,74.4,74.4,0,0,0-74.4-74.4Zm38.88,157.18-11.6,23.2a8.24,8.24,0,0,0-.8,2.7L226.29,450.86a14.77,14.77,0,0,1-29.29.56L179.48,334.54a35.88,35.88,0,0,0-71,0L91,451.42a14.77,14.77,0,0,1-29.29-.56L48,327.12a8.26,8.26,0,0,0-.8-2.7l-11.6-23.2A186.2,186.2,0,0,1,16,218.4a58.4,58.4,0,0,1,81.38-53.68,118.84,118.84,0,0,0,93.25,0A58.4,58.4,0,0,1,272,218.4a186.2,186.2,0,0,1-19.55,82.82Z" transform="translate(0.01)"/><path class="a" d="M59.55,177.34A61.76,61.76,0,0,0,32,228.84V240H48V228.84a45.79,45.79,0,0,1,20.44-38.18Z" transform="translate(0.01)"/><rect class="a" x="304.01" y="192" width="104" height="16"/><rect class="a" x="304.01" y="240" width="104" height="16"/><rect class="a" x="304.01" y="288" width="104" height="16"/><rect class="a" x="280.01" y="144" width="128" height="16"/><rect class="a" x="304.01" y="336" width="48" height="16"/></svg>