<svg xmlns="http://www.w3.org/2000/svg" viewBox="0 0 480 413"><defs><style>.a{fill:#34b8c0;}</style></defs><title>friendly-staff</title><path class="a" d="M152,144A72,72,0,1,0,80,72,72,72,0,0,0,152,144Zm0-128A56,56,0,1,1,96,72,56,56,0,0,1,152,16Z" transform="translate(0)"/><path class="a" d="M368,136a56,56,0,1,0-56-56A56,56,0,0,0,368,136Zm0-96a40,40,0,1,1-40,40A40,40,0,0,1,368,40Z" transform="translate(0)"/><path class="a" d="M408,144h-8a8,8,0,0,0-5.66,2.34l-26.4,26.4-26.82-26.4a8,8,0,0,0-5.6-2.3H328a72.08,72.08,0,0,0-52.8,23.15A86,86,0,0,0,216,144a8,8,0,0,0-5.66,2.34L152,204.69,93.66,146.34A8,8,0,0,0,88,144,88.12,88.12,0,0,0,0,232V333.6a24,24,0,0,0,14.27,22l121.51,54a39.77,39.77,0,0,0,32.42,0l121.52-54a24,24,0,0,0,14.28-22V320.09l56.92,22.12a23.58,23.58,0,0,0,6.92,1,26.27,26.27,0,0,0,7.78-1.23l89-34.57A23.9,23.9,0,0,0,480,285V216A72.08,72.08,0,0,0,408,144ZM288,333.6a8,8,0,0,1-4.8,7.33l-121.52,54a23.81,23.81,0,0,1-19.41,0l-121.46-54A8,8,0,0,1,16,333.6V232a72.1,72.1,0,0,1,68.8-71.93l61.6,61.6a8,8,0,0,0,11.31,0l61.6-61.6A71.57,71.57,0,0,1,254.17,171,70.52,70.52,0,0,1,270,184.29,71.57,71.57,0,0,1,288,232ZM464,285a8,8,0,0,1-5.14,7.5L370.4,326.91a7.41,7.41,0,0,1-4.18.2L304,302.93V232c0-2.57-.13-5.12-.35-7.66-.07-.8-.21-1.66-.3-2.49-.19-1.69-.4-3.37-.69-5-.18-1-.4-2-.61-2.93-.31-1.5-.64-3-1-4.46-.27-1-.58-2-.89-3.05-.43-1.4-.87-2.78-1.37-4.15-.37-1-.76-2-1.18-3.06q-.8-2-1.69-3.92c-.46-1-.93-2-1.44-3-.64-1.27-1.34-2.51-2-3.75-.55-1-1.09-1.92-1.66-2.86-.8-1.26-1.6-2.47-2.47-3.69-.6-.86-1.17-1.73-1.79-2.56-.13-.17-.23-.35-.36-.52A56.08,56.08,0,0,1,328,160h4.24l30.16,29.7a8,8,0,0,0,11.27,0L403.31,160H408a56.07,56.07,0,0,1,56,56Z" transform="translate(0)"/></svg>