<svg xmlns="http://www.w3.org/2000/svg" viewBox="0 0 296.3 430.11"><defs><style>.a{fill:#34b8c0;}</style></defs><title>location</title><path class="a" d="M356.21,107.05c-1.53-5.74-4.64-11.85-6.94-17.21C321.75,23.7,261.61,0,213.05,0,148.05,0,76.46,43.59,66.9,133.43v18.35c0,.77.26,7.65.64,11.09,5.36,42.82,39.14,88.32,64.38,131.14,27.15,45.87,55.31,91,83.22,136.11,17.21-29.44,34.35-59.26,51.17-87.93,4.58-8.42,9.9-16.83,14.49-24.86,3.06-5.35,8.9-10.7,11.57-15.67,27.14-49.7,70.84-99.78,70.84-149.1V132.29C363.21,126.94,356.58,108.2,356.21,107.05Zm-142,92.14c-19.11,0-40-9.55-50.34-35.94-1.54-4.2-1.41-12.62-1.41-13.39V138c0-33.64,28.56-48.93,53.41-48.93,30.59,0,54.24,24.47,54.24,55.06S244.83,199.19,214.24,199.19Z" transform="translate(-66.9)"/></svg>