<svg xmlns="http://www.w3.org/2000/svg" viewBox="0 0 578.11 577.73"><defs><style>.a{fill:#34b8c0;}</style></defs><title>phone</title><path class="a" d="M577.83,456.13q1.84,14.08-8.57,24.48l-81.4,80.78a45.81,45.81,0,0,1-14.38,10.4A59.43,59.43,0,0,1,456,577.3q-.61,0-3.68.31t-8,.31q-11.63,0-37.64-4t-63.64-19.58q-37.64-15.61-85.38-46.82T156.16,421.86q-42.84-42.23-71-80.78t-45.29-71.3Q22.75,237,14.18,210.41T2.55,164.51Q-.51,145.23.1,134.22T.71,122a59.49,59.49,0,0,1,5.51-17.44,45.86,45.86,0,0,1,10.4-14.38L98,8.76Q106.59.19,117.61.19a22.83,22.83,0,0,1,14.08,4.59,42.55,42.55,0,0,1,10.4,11.32l65.48,124.24a29.78,29.78,0,0,1,3.06,21.42,38.15,38.15,0,0,1-10.4,19.58l-30,30a10.21,10.21,0,0,0-2.14,4,15.1,15.1,0,0,0-.92,4.59q2.45,12.85,11,29.38,7.34,14.69,22.64,35.8t43.45,48.65q27.54,28.15,49,43.76t35.8,22.95q14.38,7.34,22,8.87l7.65,1.53a14.59,14.59,0,0,0,4-.92,10.22,10.22,0,0,0,4-2.14l34.88-35.5a37.49,37.49,0,0,1,25.7-9.79q10.41,0,16.52,3.67h.61l118.12,69.77Q575.38,443.89,577.83,456.13Z" transform="translate(0 -0.19)"/></svg>