<svg id="Layer_1" data-name="Layer 1" xmlns="http://www.w3.org/2000/svg" viewBox="0 0 217 32"><defs><style>.cls-1{fill:#0447a0;}</style></defs><title>sndn_logo</title><path class="cls-1" d="M15.32,6.24a6.22,6.22,0,0,0-5.15-2.42c-3,0-4.5,1.27-4.5,2.88,0,1.89,2.23,2.42,4.84,2.73,4.53.56,8.74,1.74,8.74,6.91,0,4.84-4.28,6.91-9.12,6.91-4.43,0-7.84-1.36-9.46-5.33l3.41-1.77c1,2.39,3.47,3.44,6.11,3.44s5-.9,5-3.26c0-2-2.14-2.88-5-3.19-4.43-.53-8.53-1.71-8.53-6.57C1.64,2.11,6,.28,10,.25c3.38,0,6.88,1,8.53,4.31Z" transform="translate(-0.68 -0.25)"/><path class="cls-1" d="M36.68,1h4.09V22.7H38.23v0L26.82,8.07V22.7H22.72V1H26L36.68,14.45Z" transform="translate(-0.68 -0.25)"/><path class="cls-1" d="M63.62,11.66c.09,5.49-3.26,11-10.85,11H44.24V1h8.53C60.21,1,63.52,6.3,63.62,11.66ZM48.3,18.76h4.46c4.93,0,6.88-3.6,6.79-7.13-.09-3.38-2.08-6.76-6.79-6.76H48.3Z" transform="translate(-0.68 -0.25)"/><path class="cls-1" d="M80.57,1h4.09V22.7H82.12v0L70.71,8.07V22.7H66.62V1h3.32L80.57,14.45Z" transform="translate(-0.68 -0.25)"/><path class="cls-1" d="M92.5,20.75a2.23,2.23,0,0,1-4.46,0A2.23,2.23,0,0,1,92.5,20.75Z" transform="translate(-0.68 -0.25)"/><path class="cls-1" d="M107.14,5.87,109.93,8l-1.71,2.17a6.52,6.52,0,0,1,1.61,4.53c0,1.89-.71,4.56-3.22,5.71a5.14,5.14,0,0,1,3.16,5.05c0,4.22-3.22,6.82-7.66,6.82s-7.75-2.7-7.75-6.82h3.75c0,2,1.83,3.29,4,3.29S106,27.54,106,25.43s-2-3.07-3.88-3.07c-4.77,0-7.75-2.92-7.75-7.69a7.45,7.45,0,0,1,7.75-7.75,6.09,6.09,0,0,1,3.5.87Zm-9,8.81a4,4,0,1,0,8,0,4,4,0,1,0-8,0Z" transform="translate(-0.68 -0.25)"/><path class="cls-1" d="M116.37,3.11a2.23,2.23,0,0,1-4.46,0A2.23,2.23,0,0,1,116.37,3.11Zm-4.12,4.25V22.7H116V7.35Z" transform="translate(-0.68 -0.25)"/><path class="cls-1" d="M124.77,3.11V7.45H129V10.7h-4.25v6.6a1.9,1.9,0,0,0,2,2.17,4.32,4.32,0,0,0,1.83-.46l1.05,3.22a8.46,8.46,0,0,1-3.13.65c-3.32.12-5.49-1.77-5.49-5.58V10.7h-2.85V7.45H121V3.51Z" transform="translate(-0.68 -0.25)"/><path class="cls-1" d="M135.59,1v8.5a5.65,5.65,0,0,1,4.77-2.29c4.34,0,6.26,2.95,6.26,7.44V22.7h-3.78v-8c0-2.79-1.46-4-3.47-4a3.92,3.92,0,0,0-3.78,4.19V22.7h-3.78V1Z" transform="translate(-0.68 -0.25)"/><path class="cls-1" d="M153.39,7.42v8c0,2.33,1.27,4.09,3.69,4.09A4,4,0,0,0,161,15.23V7.42h3.75V22.73h-3.38l-.25-2.08a6.81,6.81,0,0,1-5.18,2.29c-3.66,0-6.33-2.76-6.33-7.5v-8Z" transform="translate(-0.68 -0.25)"/><path class="cls-1" d="M171.86,1V9.49c.9-1.58,3.41-2.45,5-2.45,4.46,0,7.78,2.73,7.78,8,0,5-3.38,8-7.87,8a5.56,5.56,0,0,1-4.93-2.45l-.25,2.11h-3.53V1Zm.25,14a4.39,4.39,0,1,0,8.77,0,4.22,4.22,0,0,0-4.34-4.46A4.36,4.36,0,0,0,172.11,15Z" transform="translate(-0.68 -0.25)"/><path class="cls-1" d="M191.83,20.75a2.23,2.23,0,0,1-4.46,0A2.23,2.23,0,0,1,191.83,20.75Z" transform="translate(-0.68 -0.25)"/><path class="cls-1" d="M199.08,3.11a2.23,2.23,0,0,1-4.46,0A2.23,2.23,0,0,1,199.08,3.11ZM195,7.35V22.7h3.78V7.35Z" transform="translate(-0.68 -0.25)"/><path class="cls-1" d="M217.68,15.07a8,8,0,1,1-15.91,0,8,8,0,1,1,15.91,0Zm-12.12,0c0,2.33,1.4,4.5,4.16,4.5s4.15-2.17,4.15-4.5a4.32,4.32,0,0,0-4.15-4.53C207,10.55,205.56,12.78,205.56,15.07Z" transform="translate(-0.68 -0.25)"/></svg>