<svg xmlns="http://www.w3.org/2000/svg" viewBox="0 0 416.01 480.1"><defs><style>.a{fill:#34b8c0;}</style></defs><title>dental-equipment</title><path class="a" d="M232,139.8a72,72,0,1,0-48,0V216a8,8,0,0,0-8,8V432a8,8,0,0,0,8,8v16a24,24,0,0,0,48,0V440a8,8,0,0,0,8-8V224a8,8,0,0,0-8-8ZM216,456a8,8,0,0,1-16,0V440h16Zm8-32H192V376h32Zm0-64H192V296h32Zm0-80H192V232h32Zm-8-104v40H200V176Zm-16-16V144h16v16Zm8-32a56,56,0,1,1,56-56A56,56,0,0,1,208,128Z" transform="translate(0 0.1)"/><path class="a" d="M208,24a48,48,0,1,0,48,48A48,48,0,0,0,208,24Zm0,80a32,32,0,1,1,32-32A32,32,0,0,1,208,104Z" transform="translate(0 0.1)"/><path class="a" d="M365.68,266.32A8,8,0,0,0,352,272a7.61,7.61,0,0,0,2.32,5.6,7.29,7.29,0,0,0,2.64,1.76,7.54,7.54,0,0,0,6.08,0,8.12,8.12,0,0,0,2.64-1.76A8.31,8.31,0,0,0,368,272,8.4,8.4,0,0,0,365.68,266.32Z" transform="translate(0 0.1)"/><path class="a" d="M365.68,314.32a8,8,0,0,0-1.28-1,4.45,4.45,0,0,0-1.36-.72,5.13,5.13,0,0,0-1.52-.49,8,8,0,0,0-7.19,2.17A8.33,8.33,0,0,0,352,320a8,8,0,0,0,.55,3,10.06,10.06,0,0,0,1.77,2.56,7.29,7.29,0,0,0,2.64,1.76,8,8,0,0,0,3,.64,7.71,7.71,0,0,0,5.68-2.4A8.31,8.31,0,0,0,368,320,8.4,8.4,0,0,0,365.68,314.32Z" transform="translate(0 0.1)"/><path class="a" d="M414,13.54A40,40,0,0,0,384,0H368a40,40,0,0,0-40,40V72a40,40,0,0,0,24,36.61V128h-8a8,8,0,0,0-8,8v80a8,8,0,0,0-8,8V432a8,8,0,0,0,8,8v16a24,24,0,0,0,48,0V440a8,8,0,0,0,8-8V224a8,8,0,0,0-8-8V136a8,8,0,0,0-8-8h-8V112a8,8,0,0,0,0-16,24,24,0,0,1-24-24V40a24,24,0,0,1,24-24h16a24,24,0,0,1,18,8.14,8,8,0,0,0,12-10.6ZM352,176h16v40H352Zm16,280a8,8,0,0,1-16,0V440h16Zm8-32H344V408h32Zm0-192V392H344V232Zm-8-72H352V144h16Z" transform="translate(0 0.1)"/><path class="a" d="M104,368H88V120a8,8,0,0,0-8-8H78.24L71.75,86.06A8,8,0,0,0,64,80V40a8,8,0,0,0-3-6.25l-40-32a8,8,0,0,0-10,12.5L48,43.84V80a8,8,0,0,0-7.76,6.06L33.76,112H32a8,8,0,0,0-8,8V368H8a8,8,0,0,0,0,16H32v80H24a8,8,0,0,0,0,16H88a8,8,0,0,0,0-16H80V384h24a8,8,0,0,0,0-16ZM54.24,96h3.5l4,16H50.24ZM64,464H48V384H64Zm8-96H40V320h8a8,8,0,0,0,0-16H40V272h8a8,8,0,0,0,0-16H40V224h8a8,8,0,0,0,0-16H40V176h8a8,8,0,0,0,0-16H40V128H72Z" transform="translate(0 0.1)"/></svg>