<svg xmlns="http://www.w3.org/2000/svg" viewBox="0 0 480 480"><defs><style>.a{fill:#bf8ac6;}</style></defs><title>dental-service-2</title><path class="a" d="M474.19,288.31l-77.6-22.18a50.88,50.88,0,0,0-34.21,2.22A295.14,295.14,0,0,0,376,179.74a67.9,67.9,0,0,0-63.06-67.58l-1.1,16A51.86,51.86,0,0,1,360,179.74a279.32,279.32,0,0,1-17.84,98.4L336.5,293.2a8,8,0,0,0-.49,2.4L329.4,414.52a18.53,18.53,0,0,1-11,15.83l-6.28-163.26.07-.2A247.43,247.43,0,0,0,328,179.74,19.76,19.76,0,0,0,308.26,160v16a3.74,3.74,0,0,1,3.74,3.74,231.25,231.25,0,0,1-10.94,70.4,84.35,84.35,0,0,0-119.25-2.88h0q-1.47,1.4-2.87,2.87A231.31,231.31,0,0,1,168,179.74a3.82,3.82,0,0,1,5.22-3.43A168.63,168.63,0,0,0,240,190a171.24,171.24,0,0,0,25.17-1.86l-2.35-15.82A154.4,154.4,0,0,1,179.5,161.6,19.74,19.74,0,0,0,152,179.74a247.43,247.43,0,0,0,15.81,87.15l.07.2L161.6,430.35a18.53,18.53,0,0,1-11-15.88L144,295.55a8,8,0,0,0-.49-2.4l-5.66-15.06A279.34,279.34,0,0,1,120,179.74a51.74,51.74,0,0,1,72.13-47.55,120.8,120.8,0,0,0,73.14,7.2l-3.33-15.65a105,105,0,0,1-63.52-6.22A67.74,67.74,0,0,0,104,179.74a295.1,295.1,0,0,0,13.6,88.62,50.88,50.88,0,0,0-34.21-2.22L5.79,288.31A8,8,0,0,0,0,296V472a8,8,0,0,0,8,8H472a8,8,0,0,0,8-8V296A8,8,0,0,0,474.19,288.31ZM160.3,464H16V302l71.8-20.51a35,35,0,0,1,40.32,16.88l6.5,117A34.5,34.5,0,0,0,161,446.91Zm23.46-194.23a68,68,0,0,1,112.46,0l6.18,160.07a18.58,18.58,0,0,1-9.86-13.65l-17-113.65a35.88,35.88,0,0,0-71,0l-17,113.65a18.58,18.58,0,0,1-9.9,13.65ZM176.31,464l.66-17a34.74,34.74,0,0,0,26.34-28.41l17-113.65a19.86,19.86,0,0,1,39.3,0l17,113.6A34.74,34.74,0,0,0,303,446.94l.66,17.06ZM464,464H319.7l-.7-17.09a34.5,34.5,0,0,0,26.34-31.55l6.5-117a35,35,0,0,1,40.32-16.88L464,302Z" transform="translate(0)"/><path class="a" d="M472,24H328V8a8,8,0,0,0-8-8H256a8,8,0,0,0-8,8V88a8,8,0,0,0,8,8h24V216h16V96h24a8,8,0,0,0,8-8V72H472a8,8,0,0,0,8-8V32A8,8,0,0,0,472,24ZM312,80H264V16h48ZM464,56H328V40H464Z" transform="translate(0)"/></svg>