<svg xmlns="http://www.w3.org/2000/svg" viewBox="0 0 479.99 480.85"><defs><style>.a{fill:#bf8ac6;}</style></defs><title>dental-service-1</title><path class="a" d="M304,32.82a80,80,0,1,0,80,80A80,80,0,0,0,304,32.82Zm0,144a64,64,0,1,1,64-64A64,64,0,0,1,304,176.82Z" transform="translate(0 0)"/><path class="a" d="M477.65,243.16l-75.88-75.88a112.4,112.4,0,1,0-33.5,37.12l74.07,74.07a8,8,0,0,0,11.31,0l24-24A8,8,0,0,0,477.65,243.16ZM304,208.82a96,96,0,1,1,96-96A96,96,0,0,1,304,208.82Zm144,52.69-67.3-67.3a113.34,113.34,0,0,0,12-13.34l67.94,67.94Z" transform="translate(0 0)"/><path class="a" d="M359.8,224.64a235,235,0,0,1-27.58,63.2l-3,4.8a8.1,8.1,0,0,0-1,2.46L293.36,448.33a21.17,21.17,0,0,1-41.53-1.2l-24-144a36.33,36.33,0,0,0-71.66,0l-24,144a21.17,21.17,0,0,1-41.53,1.2L55.8,295a8.1,8.1,0,0,0-1-2.46l-3-4.8A235.05,235.05,0,0,1,16,163,98.21,98.21,0,0,1,152.88,72.76a99.27,99.27,0,0,0,27.52,7.35l1.86-15.89a83,83,0,0,1-23.06-6.17A114.2,114.2,0,0,0,0,163,251.08,251.08,0,0,0,38.2,296.25l2.29,3.66L75,451.91a37.17,37.17,0,0,0,72.91-2.13l24-144a20.34,20.34,0,0,1,40.11,0l24,144A37.17,37.17,0,0,0,309,451.91l34.54-152,2.29-3.66a251.52,251.52,0,0,0,29.44-67.43Z" transform="translate(0 0)"/><path class="a" d="M88,104.82,86.4,97c-16,3.21-46.4,20.68-46.4,63.84H56c0-40.56,32.24-47.87,33.6-48.17Z" transform="translate(0 0)"/><rect class="a" x="104" y="96.82" width="16" height="16"/><rect class="a" x="258.87" y="86.8" width="62.22" height="16" transform="translate(17.9 232.82) rotate(-45)"/><rect class="a" x="276.41" y="116.82" width="79.19" height="16" transform="translate(4.29 260.01) rotate(-45)"/></svg>