<svg xmlns="http://www.w3.org/2000/svg" viewBox="0 0 479.99 480"><defs><style>.a{fill:#34b8c0;}</style></defs><title>experienced-dentists</title><rect class="a" x="240" y="432" width="72" height="16"/><path class="a" d="M351.9,470.74,329.37,328.08a24,24,0,0,0-15.51-18.82l-10.58-3.85-15-127.76c.12-.11.21-.25.32-.36a22.27,22.27,0,0,0,1.78-2,19.84,19.84,0,0,0,1.3-1.58,22.34,22.34,0,0,0,1.41-2.45c.3-.57.66-1.1.92-1.7a22.77,22.77,0,0,0,1-3c.15-.53.38-1,.49-1.58a23,23,0,0,0,.54-5V144a24,24,0,0,0-.54-5c-.11-.54-.33-1-.48-1.54a23.84,23.84,0,0,0-1-3.1c-.26-.58-.61-1.1-.9-1.66a24.43,24.43,0,0,0-1.47-2.5c-.39-.55-.85-1-1.28-1.55a24.74,24.74,0,0,0-1.85-2c-.15-.14-.27-.33-.42-.47V88A88.1,88.1,0,0,0,200,0H152A88.1,88.1,0,0,0,64,88v38.13c-.16.14-.27.33-.42.47a23.39,23.39,0,0,0-1.85,2c-.43.51-.89,1-1.28,1.55a24.32,24.32,0,0,0-1.47,2.5c-.3.56-.65,1.09-.91,1.67a25,25,0,0,0-1,3.09c-.15.52-.37,1-.48,1.55a23,23,0,0,0-.56,5v16a24.09,24.09,0,0,0,.53,5c.11.54.34,1,.49,1.56a24.57,24.57,0,0,0,1,3c.26.6.62,1.13.93,1.7a25.53,25.53,0,0,0,1.41,2.45c.39.56.86,1,1.3,1.57a23.68,23.68,0,0,0,1.78,2c.12.11.2.26.32.36l-15,127.76-10.58,3.85A24,24,0,0,0,22.71,328L.1,470.75A8,8,0,0,0,8,480H344a8,8,0,0,0,7.9-9.26ZM202,303.14h0a39.75,39.75,0,0,1-39.67,7.27A40.3,40.3,0,0,1,150,303.14l-19.63-16.82L148.53,256h54.94l18.19,30.32Zm10.83,11.79-7,18.07c-5.86,15-19.24,20.34-29.8,20.34S152.07,348,146.2,333l-7.06-18.06.42.36a55.66,55.66,0,0,0,55.56,10.18,56.54,56.54,0,0,0,17.34-10.18Zm-94.08-95.18A87.73,87.73,0,0,1,104,170.94V128h64a56.07,56.07,0,0,0,56,56h23a87.71,87.71,0,0,1-13.81,35.75l-1.62,2.44A39.92,39.92,0,0,1,198.31,240H156.62a45.38,45.38,0,0,1-37.84-20.25Zm100.8,32a55.83,55.83,0,0,0,25.32-20.69l1.62-2.44A103.47,103.47,0,0,0,263.12,184h9.76l13.57,115.29-49-17.83ZM280,144v16a8,8,0,0,1-8,8h-8V136h8A8,8,0,0,1,280,144ZM80,88a72.08,72.08,0,0,1,72-72h48a72.08,72.08,0,0,1,72,72v32H256a8,8,0,0,0-8,8v40H224a40,40,0,0,1-40-40v-8a8,8,0,0,0-8-8H104V96H88v24H80Zm-8,56a8,8,0,0,1,8-8h8v32H80a8,8,0,0,1-8-8Zm7.12,40h9.75a103.51,103.51,0,0,0,16.59,44.62,61.23,61.23,0,0,0,27.33,22.5l-18.2,30.33-49,17.83ZM176,464H17.36L38.44,330.56a8,8,0,0,1,5.17-6.27l12-4.36a8,8,0,0,0,3.21-.43l56.61-21.23,15.87,40.57a48,48,0,0,0,89.41,0l15.87-40.57,56.61,21.23a8.21,8.21,0,0,0,2.82.5c.14,0,.27-.06.41-.07l12,4.36a8,8,0,0,1,5.17,6.28l21,133.43Z" transform="translate(0)"/><path class="a" d="M181.68,386.32A8,8,0,1,0,184,392,8.4,8.4,0,0,0,181.68,386.32Z" transform="translate(0)"/><path class="a" d="M183.36,421a9.24,9.24,0,0,0-1.68-2.64,8.38,8.38,0,0,0-11.36,0,9.24,9.24,0,0,0-1.68,2.64A7.92,7.92,0,0,0,179,431.4a9.35,9.35,0,0,0,2.64-1.68A7.92,7.92,0,0,0,183.36,421Z" transform="translate(0)"/><path class="a" d="M181.68,450.32A8,8,0,0,0,168,456a7.92,7.92,0,0,0,2.32,5.68,9.24,9.24,0,0,0,2.64,1.68A7.92,7.92,0,0,0,184,456,8.4,8.4,0,0,0,181.68,450.32Z" transform="translate(0)"/><path class="a" d="M408,56H344c-13.23,0-24,11.42-24,25.46v24.38a17.31,17.31,0,0,0,1.2,6.36l17.9,45.58a15.72,15.72,0,0,0,27.81,3.36l8.9-13.52,9.3,13.53A15.64,15.64,0,0,0,399.84,168a16.08,16.08,0,0,0,13.06-10.26l17.24-43.9A26.63,26.63,0,0,0,432,104V81.46C432,67.42,421.23,56,408,56Zm8,48a10.67,10.67,0,0,1-.74,4l-17,44.11L389,138.6a15.6,15.6,0,0,0-26,0l-9,13.34-18-46.1V81.46c0-5.22,3.58-9.46,8-9.46h27.23A40.74,40.74,0,0,0,368,88a8,8,0,0,0,16,0c0-9.77,4.74-16,8-16h16c4.42,0,8,4.24,8,9.46Z" transform="translate(0)"/><path class="a" d="M376,0a104.13,104.13,0,0,0-77.51,34.66,8,8,0,0,0,11.75,10.86l.17-.19A88,88,0,1,1,324.69,175.5a8,8,0,0,0-9.34,13A104,104,0,1,0,376,0Z" transform="translate(0)"/></svg>