<svg xmlns="http://www.w3.org/2000/svg" viewBox="0 0 56.45 60"><defs><style>.a{fill:#34b8c0;}</style></defs><title>stopwatch</title><path class="a" d="M29.84,38a3.56,3.56,0,0,0,2.61-1.46l9.36-13a1,1,0,0,0-1.4-1.4L27.47,31.56A3.56,3.56,0,0,0,29.56,38ZM28,34.31a1.56,1.56,0,0,1,.64-1.14l7.9-5.71-5.71,7.89a1.56,1.56,0,0,1-2.82-1Z" transform="translate(0)"/><path class="a" d="M52.21,19.56V19.5h0a27.19,27.19,0,0,0-3.56-4.81l2.15-2.15,1.41,1.37,4.24-4.24L52.21,5.42,47.93,9.67l1.42,1.41-2.14,2.15A27.15,27.15,0,0,0,42.4,9.66h-.06a26.81,26.81,0,0,0-10.27-3.4V5h1.5a2.5,2.5,0,0,0,0-5h-9a2.5,2.5,0,0,0,0,5h1.5V6.16a27.5,27.5,0,0,0-3.22.53,1,1,0,0,0,.36,2A25.43,25.43,0,0,1,26,8.16l1.07-.08L28,8v2a1,1,0,0,0,2,0V8a24.81,24.81,0,0,1,10.46,2.85l-1,1.71a1,1,0,0,0,1.69,1.07l0-.07,1-1.7A25.19,25.19,0,0,1,50,19.63l-1.7,1a1,1,0,0,0,1,1.73l1.71-1A24.82,24.82,0,0,1,53.81,32h-2a1,1,0,0,0,0,2h2A24.82,24.82,0,0,1,51,44.62l-1.71-1a1,1,0,0,0-1.07,1.69l.07,0,1.7,1a25.19,25.19,0,0,1-7.74,7.77l-1-1.7a1,1,0,0,0-1.73,1l1,1.71A24.81,24.81,0,0,1,30,58V56a1,1,0,0,0-2,0v2a25.23,25.23,0,0,1-4.79-.64,1,1,0,1,0-.45,2h0a27,27,0,0,0,6.06.69H29a26.83,26.83,0,0,0,13.2-3.58h.09a27.2,27.2,0,0,0,9.91-9.84v-.14a26.9,26.9,0,0,0,0-26.87Zm0-11.31,1.41,1.41-1.41,1.42L50.76,9.66ZM28,6V3H24.5a.5.5,0,0,1,0-1h9a.5.5,0,0,1,0,1H30V6H28Z" transform="translate(0)"/><path class="a" d="M20,14H15a1,1,0,0,0,0,2h5a1,1,0,0,0,0-2Z" transform="translate(0)"/><path class="a" d="M20,21H10a1,1,0,0,0,0,2H20a1,1,0,0,0,0-2Z" transform="translate(0)"/><path class="a" d="M20,28H5a1,1,0,0,0,0,2H20a1,1,0,0,0,0-2Z" transform="translate(0)"/><path class="a" d="M20,35H1a1,1,0,1,0,0,2H20a1,1,0,0,0,0-2Z" transform="translate(0)"/><path class="a" d="M20,42H7a1,1,0,0,0,0,2H20a1,1,0,0,0,0-2Z" transform="translate(0)"/><path class="a" d="M20,49H13a1,1,0,0,0,0,2h7a1,1,0,0,0,0-2Z" transform="translate(0)"/></svg>